<?xml version="1.0" encoding="utf-8"?>
<!-- Generator: Adobe Illustrator 21.0.0, SVG Export Plug-In . SVG Version: 6.00 Build 0)  -->
<svg version="1.1" id="Capa_1" xmlns="http://www.w3.org/2000/svg" xmlns:xlink="http://www.w3.org/1999/xlink" x="0px" y="0px"
	 viewBox="0 0 1308.1 357" style="enable-background:new 0 0 1308.1 357;" xml:space="preserve">
<style type="text/css">
	.st0{fill:#FFFFFF;stroke:#FFFFFF;stroke-width:1.4173;stroke-miterlimit:10;}
	.st1{fill:#FFFFFF;stroke:#FFFFFF;stroke-width:2.8346;stroke-miterlimit:10;}
	.st2{fill:none;stroke:#FFFFFF;stroke-width:2.8346;stroke-miterlimit:10;}
</style>
<g>
	<g>
		<path class="st0" d="M178.1,147.5c0.8-1,1.6-1,2.4-0.1c0.8,0.9,0.8,1.7,0,2.6c-3.6,3.9-7.7,8.7-12.3,14.3
			c-4.6,5.7-9.3,11.7-14.1,18s-9.4,12.7-14,19.2c-4.5,6.5-8.6,12.6-12.1,18.5c-3.6,5.8-6.4,11.1-8.6,15.7s-3.3,8.1-3.3,10.6
			c0,1.8,0.4,3.3,1.3,4.5s3,1.8,6.2,1.8c11,0,23.3-1.5,36.8-4.5s27.2-7.2,40.9-12.5c13.8-5.3,27.1-11.6,40.1-18.7
			c13-7.1,24.5-14.9,34.6-23.2s18.2-17,24.3-26.1c6.1-9.1,9.1-18.1,9.1-27.2c0-6-1.7-11.4-5.2-16.3c-3.5-4.9-8.4-9-14.8-12.4
			s-14.1-6-23.2-7.9S247,101,235.8,101c-15.4,0-30.7,1.1-45.9,3.2s-29.7,5.1-43.5,8.9s-26.5,8.3-38.3,13.4
			c-11.7,5.1-21.9,10.7-30.5,16.6c-8.6,6-15.3,12.3-20.2,18.8c-4.9,6.6-7.3,13.2-7.3,19.8c0,1.9,0.4,4,1.1,6.1
			c0.7,2.1,2.5,3.9,5.2,5.3c1.1,0.3,1.5,1,1,2.1s-1.3,1.3-2.4,0.9c-3.4-1.8-5.6-4-6.7-6.7c-1.1-2.7-1.6-5.2-1.6-7.7
			c0-6.8,2.5-13.6,7.4-20.5s11.8-13.4,20.7-19.7c8.8-6.2,19.2-12,31.1-17.4c11.9-5.3,24.9-10,38.9-13.8c14-3.9,28.7-7,44.2-9.2
			c15.5-2.3,31.1-3.4,46.8-3.4c11.7,0,22.2,1,31.7,3s17.6,4.9,24.3,8.6c6.7,3.7,11.9,8.2,15.5,13.5c3.6,5.3,5.5,11.1,5.5,17.6
			c0,9.2-3.1,18.5-9.4,27.9c-6.2,9.4-14.5,18.4-24.7,27s-21.9,16.6-35.1,23.9c-13.2,7.4-26.8,13.8-40.8,19.2s-27.9,9.7-41.7,12.9
			s-26.3,4.7-37.7,4.7c-4.7,0-7.7-0.9-9-2.8c-1.3-1.9-1.9-4.2-1.9-6.9c0-2.6,1.1-6.3,3.3-11.1c2.2-4.8,5.1-10.1,8.7-16
			s7.7-12.2,12.3-19c4.5-6.7,9.2-13.3,14.1-19.7c4.9-6.4,9.6-12.5,14.3-18.2C170.2,156.5,174.4,151.6,178.1,147.5z"/>
		<path class="st0" d="M313.7,212.2c1-0.3,1.7,0.1,2.2,1.2c0.5,1.1,0.2,1.9-0.7,2.2c-1.3,0.5-2.4,1.4-3.3,2.8
			c-0.9,1.4-1.6,2.8-2.1,4.3s-0.7,2.8-0.6,3.9c0.1,1.1,0.6,1.7,1.6,1.7c1.3,0,2.3-1,3.2-2.9c0.8-1.9,1.1-4,0.7-6.3
			c-0.2-1.1,0.1-1.9,0.7-2.2s1.3-0.4,1.9-0.2c2.9,0.6,5.9,1.1,9,1.3s6.2,0.4,9.2,0.4c10.2,0,19-1.3,26.2-3.9c1-0.3,1.6,0,1.9,1.1
			s0,1.8-1,2.3c-7.3,2.6-16.4,3.9-27.2,3.9c-3.2,0-6.3-0.1-9.2-0.2c-2.9-0.2-5.5-0.4-7.8-0.7c0.2,2.3-0.4,4.7-1.7,7.2
			c-1.3,2.5-3.3,3.8-6.1,3.8c-2.3,0-3.7-0.9-4.4-2.7c-0.6-1.8-0.8-3.8-0.4-6s1.3-4.3,2.7-6.4C310.1,214.4,311.7,213,313.7,212.2z"/>
		<path class="st0" d="M361,215.8c0.3-1.1,1-1.5,2.1-1.2s1.5,0.9,1.3,1.7l-1.2,5.8c3.2-2.3,6.4-4.3,9.4-6.1s5.5-2.7,7.4-2.7
			c2.1,0,3.5,0.6,4.3,1.8c0.7,1.2,1.3,2.4,1.8,3.5c0.6,1.5,1.6,2.9,2.9,4.4s3.6,2.2,7,2.2c3.2,0,7.7-0.8,13.2-2.3
			c5.6-1.5,12.9-4.3,22-8.4c1-0.3,1.7,0,2.1,0.8c0.4,0.9,0.2,1.6-0.6,2.1c-9.6,4.2-17.2,7.1-23,8.7c-5.8,1.6-10.3,2.4-13.7,2.4
			c-2.3,0-4.1-0.2-5.6-0.7s-2.7-1.2-3.6-2.1c-1-0.9-1.7-1.8-2.2-2.8s-1-1.9-1.5-2.9c-0.8-2.3-1.9-3.4-3.2-3.4c-1.8,0-4,0.8-6.6,2.6
			c-2.6,1.7-6.5,4.5-11.7,8.4c-0.3,0.3-0.9,0.5-1.7,0.6c-0.8,0.1-1.1-0.3-1-1.1L361,215.8z"/>
		<path class="st0" d="M446.8,210c1.3,0.2,1.8,0.8,1.6,1.8c-0.2,1.1-0.8,1.6-1.6,1.6c-2.4,0-4.9,0.4-7.3,1.1
			c-2.4,0.7-4.6,1.6-6.6,2.7c-1.9,1.1-3.5,2.3-4.7,3.6c-1.2,1.4-1.8,2.6-1.8,3.8c0,0.6,0.3,1,1,1c2.9,0,6.2-0.9,9.7-2.8
			c3.6-1.9,7.3-4.6,11.2-8.3c3.9-3.6,7.7-8.2,11.5-13.7s7.3-11.9,10.6-19.2c0.3-1,1-1.3,2.1-0.9c1.1,0.4,1.4,1.1,1.1,2.1
			c-2.3,9.4-3.4,17.3-3.4,23.8c0,5.7,0.9,10.1,2.7,13.4c1.8,3.2,4.5,4.9,8.3,4.9c4.4,0,8.6-0.7,12.8-2.1c4.1-1.4,9.6-3.8,16.4-7.4
			c1.3-0.6,2.1-0.4,2.3,0.6c0.2,1.1,0,1.8-0.9,2.3c-7.1,3.7-12.9,6.3-17.3,7.8s-8.8,2.2-13.4,2.2c-5,0-8.7-1.9-10.9-5.8
			c-2.3-3.9-3.4-9.1-3.4-15.8c0-3.6,0.2-7.4,0.7-11.7c-6.8,11.8-13.8,20.5-21.1,25.9c-7.3,5.4-13.6,8.1-19,8.1
			c-1.3,0-2.3-0.4-3.2-1.2c-0.8-0.8-1.2-1.9-1.2-3.2c0-1.6,0.7-3.3,2.1-5s3.2-3.3,5.5-4.7c2.3-1.5,4.8-2.6,7.7-3.5
			C441,210.4,443.9,210,446.8,210z"/>
		<path class="st0" d="M528.4,206.6c1,0,1.5,0.6,1.5,1.7c0,1.1-0.5,1.7-1.5,1.7c-1.6,0-3.3,0.2-5,0.5s-3.3,0.8-4.7,1.3
			c-1.5,0.6-2.6,1.3-3.5,2.1s-1.3,1.6-1.3,2.4c0,1.3,0.6,2.2,1.7,2.8c1.1,0.6,2.3,1,3.6,1.3c0.8,0.2,1.2,0.7,1.1,1.6
			c-0.1,0.9-0.5,1.3-1.3,1.3c-2.8,0.3-4.1,1.1-4.1,2.2c0,1.8,4,2.7,12.1,2.7c3.2,0,7.2-0.4,11.8-1.1c4.6-0.7,9.3-1.7,14.1-2.9
			s9.3-2.6,13.6-4.3c4.3-1.6,7.8-3.4,10.6-5.3c0.8-0.5,1.5-0.3,2.2,0.5c0.6,0.8,0.6,1.6-0.2,2.4c-2.8,1.9-6.4,3.8-10.9,5.5
			s-9.3,3.2-14.2,4.5s-9.8,2.3-14.6,3s-8.9,1.1-12.3,1.1c-4.7,0-8.5-0.4-11.3-1.3c-2.8-0.9-4.3-2.5-4.3-4.7c0-0.8,0.4-1.5,1.2-2.2
			c0.8-0.6,1.6-1.1,2.4-1.5c-2.9-0.8-4.4-2.7-4.4-5.6c0-1.3,0.6-2.6,1.7-3.8s2.6-2.3,4.3-3.2s3.6-1.6,5.7-2.1
			C524.5,206.8,526.5,206.6,528.4,206.6z"/>
		<path class="st0" d="M674.9,179.6c0,2.6-0.7,5.6-2.2,9s-3.7,6.8-6.7,10.3s-6.7,6.9-11.2,10.2s-9.7,6.2-15.7,8.6
			c1,2.6,2.8,4.7,5.3,6.3c2.6,1.6,6,2.4,10.2,2.4s9.2-0.9,14.9-2.8c5.7-1.9,12.4-4.9,20-9.1c0.8-0.3,1.5,0,1.9,0.8
			c0.5,0.9,0.3,1.6-0.5,2.1c-7.8,4.5-14.7,7.7-20.8,9.6c-6.1,1.9-11.3,2.8-15.7,2.8c-7.1,0-12.3-1.8-15.4-5.5
			c-3.2-3.6-4.7-8.1-4.7-13.2c0-5.5,1-10.7,3-15.7c2-4.9,4.6-9.3,7.8-13s6.6-6.7,10.2-8.9s7.2-3.3,10.6-3.3c2.9,0,5.1,0.9,6.6,2.6
			C674.2,174.6,674.9,176.9,674.9,179.6z M638,211.2c0,1.5,0.1,2.5,0.2,3.2c5.7-2.3,10.6-4.9,14.7-8c4.1-3.1,7.6-6.2,10.3-9.4
			c2.8-3.2,4.8-6.3,6.2-9.4c1.4-3.1,2.1-5.7,2.1-8c0-3.9-1.8-5.8-5.3-5.8c-2.9,0-6,1-9.4,3c-3.3,2-6.4,4.7-9.2,8.1
			c-2.8,3.4-5.1,7.4-6.9,11.9C638.9,201.4,638,206.2,638,211.2z"/>
		<path class="st0" d="M707.2,215.8c-0.3,0.8-1,1.2-1.9,1.1c-1-0.1-1.5-0.6-1.5-1.6c0.2-0.6,0.1-1.4-0.2-2.2s-1.1-1.2-2.2-1.2
			c-1.3,0-2.7,0.4-4.1,1.1c-1.5,0.7-2.8,1.7-4.1,2.8s-2.4,2.3-3.3,3.5c-0.9,1.2-1.3,2.4-1.3,3.5c0,0.6,0.3,0.9,1,0.9
			c0.6-0.1,1.5-0.4,2.6-1s2.2-1.3,3.5-2.2s2.6-1.9,3.9-3c1-0.8,1.8-1.1,2.4-1c0.6,0.2,1.3,0.6,1.9,1.2c2.3,2.3,4.8,3.8,7.5,4.6
			c2.8,0.8,5.3,1.2,7.5,1.2c4,0,8.5-0.9,13.2-2.7c4.8-1.8,9.2-3.9,13.2-6.3c1.3-0.5,2.1-0.3,2.6,0.6c0.4,0.9,0.2,1.7-0.6,2.3
			c-4.2,2.6-8.9,4.8-14.1,6.7c-5.2,1.9-10,2.8-14.3,2.8c-3.2,0-6.4-0.5-9.4-1.6s-5.8-2.7-8.4-5c-4.1,3.9-7.7,6.1-11.1,6.6
			c-3.3,0.5-5-0.9-5-4.1c0-1.5,0.5-3,1.6-4.7s2.4-3.2,4-4.6c1.6-1.4,3.4-2.6,5.3-3.5c1.9-1,3.7-1.5,5.3-1.5c2.6,0,4.3,0.9,5,2.7
			C707.1,213,707.4,214.5,707.2,215.8z"/>
		<path class="st0" d="M956.7,183.3c1.1,0.2,1.7,0.8,1.6,1.9c-0.1,1.1-0.8,1.6-2.1,1.5c-3.7-0.3-7.8-0.6-12.1-0.9
			c-4.4-0.2-8.9-0.4-13.6-0.4c-2.9,0-5.9,0-9,0.1s-6.2,0.2-9.5,0.4c0,7.3,0.9,13.4,2.8,18.2c1.9,4.9,4.3,8.7,7.2,11.4
			c2.9,2.8,6.3,4.7,10.1,5.8s7.7,1.7,11.5,1.7c6.2,0,11.9-1,17.4-2.9c5.4-1.9,9.4-3.8,12-5.6c1.3-0.8,2.3-0.8,2.9,0.1
			c0.6,0.9,0.3,1.8-1,2.8c-2.8,1.9-7,3.9-12.8,6c-5.8,2-11.9,3-18.6,3c-4.4,0-8.6-0.6-12.8-1.8c-4.1-1.2-7.9-3.4-11.2-6.4
			c-3.3-3.1-6-7.2-8-12.4s-3-11.7-3-19.7c-12.6,0.6-25.8,1.7-39.6,3.2s-27.5,3.3-41.1,5.6c-4.9,7.8-8.7,15.2-11.5,22.2
			s-4.3,13.6-4.3,19.6c-0.2,1-0.8,1.4-1.8,1.3c-1.1-0.1-1.6-0.5-1.6-1.3c0-6,1.3-12.5,4-19.4c2.7-7,6.4-14.3,11.1-21.9
			c-6.3,1.1-12.5,2.4-18.6,3.6c-6.1,1.3-11.9,2.6-17.6,3.9c-1.1,0.2-1.8-0.3-2.1-1.3c-0.2-1.1,0.1-1.7,1.1-2.1
			c6.2-1.5,12.6-2.9,19.3-4.3c6.7-1.4,13.6-2.6,20.5-3.8c5.8-8.9,12.5-17.9,20.2-27c7.6-9.1,15.6-17.9,23.9-26.4
			c8.3-8.5,16.6-16.4,24.9-23.8c8.3-7.4,15.8-13.8,22.7-19.4s12.8-10,17.9-13.1c5-3.2,8.4-4.7,10.2-4.7c2.4,0,3.9,0.6,4.5,1.8
			c0.6,1.2,0.5,3-0.2,5.3s-2,5.1-3.8,8.4c-1.8,3.2-3.8,6.9-6.1,10.9c-2.8,4.9-5.8,10.3-9,16.4s-6.3,12.5-9.1,19.3
			c-2.8,6.8-5.3,13.8-7.3,21.1s-3.1,14.7-3.3,22.1c3.2-0.2,6.4-0.3,9.5-0.4c3.1-0.1,6.1-0.1,9-0.1c5,0,9.7,0.1,14.1,0.4
			C949,182.6,953,182.9,956.7,183.3z M946.3,80.5c-1.8,0-5.1,1.5-9.8,4.6c-4.8,3.1-10.5,7.3-17.3,12.5c-6.7,5.3-14.1,11.5-22,18.6
			s-15.9,14.8-23.9,23s-15.8,16.7-23.2,25.5c-7.5,8.8-14,17.5-19.7,26.1c13.1-2.1,26.4-3.8,39.7-5.2c13.4-1.4,26.2-2.3,38.5-2.8
			c0.2-7.4,1.3-14.9,3.3-22.5c2-7.5,4.5-14.8,7.4-21.7c2.9-7,6-13.5,9.4-19.7c3.3-6.2,6.4-11.7,9.1-16.8c3.7-6.6,6.6-11.9,8.5-15.8
			S948.2,80.5,946.3,80.5z"/>
		<path class="st0" d="M988.3,183.3c0.8-0.8,1.7-0.9,2.7-0.2c1,0.6,1.1,1.4,0.2,2.2c-2.3,3.1-4.5,6.4-6.6,10s-3.9,7.1-5.5,10.6
			c-1.5,3.5-2.8,6.9-3.6,10.2c-0.9,3.3-1.3,6.2-1.3,8.6c0,1,0.2,1.8,0.6,2.6c0.4,0.7,0.9,1.1,1.3,1.1c1.8,0,2.7-1.5,2.7-4.6
			c0-2.8-0.6-5.7-1.9-8.7c-0.5-0.8-0.3-1.4,0.5-1.8c0.8-0.4,1.5-0.4,1.9,0.1c2.1,1.8,5.1,3.1,9.1,4s8.2,1.3,12.8,1.3
			c4.7,0,9.3-0.4,13.8-1.1c4.5-0.7,8.4-1.7,11.7-3c1.1-0.3,1.8,0.1,1.9,1.2c0.2,1.1-0.2,1.9-1,2.2c-3.2,1.3-7.3,2.3-12,3
			c-4.8,0.7-9.6,1.1-14.5,1.1c-3.6,0-7.1-0.3-10.6-0.9c-3.5-0.6-6.4-1.3-8.9-2.3c0.2,0.8,0.3,1.7,0.4,2.6c0.1,0.9,0.1,1.7,0.1,2.3
			c0,2.4-0.5,4.4-1.5,5.8c-1,1.5-2.5,2.2-4.6,2.2c-1.5,0-2.7-0.7-3.8-2.1c-1.1-1.4-1.6-3-1.6-5c0-2.8,0.4-5.9,1.3-9.4
			c0.9-3.5,2.1-7,3.8-10.7c1.6-3.6,3.5-7.3,5.6-10.9C983.6,189.9,985.9,186.5,988.3,183.3z"/>
		<path class="st0" d="M1027.2,211.2c0.5-0.8,1.2-1,2.1-0.5s1.2,1.1,0.8,1.9c-0.5,1-1,2.2-1.5,3.6c-0.5,1.5-0.9,2.9-1.1,4.3
			c-0.2,1.4-0.4,2.6-0.4,3.6c0,1.1,0.4,1.6,1.2,1.6c2.3,0,4.7-1.1,7.4-3.2c2.7-2.1,5-4.5,6.9-7.3c1.1-1.6,2.3-1.5,3.6,0.2
			c1.5,2.1,3.2,4,5.1,5.6s4.6,2.4,8,2.4c1.9,0,4.1-0.3,6.6-1c2.4-0.6,4.9-1.4,7.4-2.3c2.5-0.9,4.8-1.8,6.9-2.8s3.7-1.9,4.9-2.7
			c1-0.8,1.9-0.8,2.7,0.1c0.8,0.9,0.6,1.7-0.5,2.6c-1.3,1-3.1,2-5.3,3.2c-2.3,1.1-4.7,2.1-7.4,3c-2.7,0.9-5.4,1.7-8.1,2.3
			c-2.8,0.6-5.1,1-7,1c-3.6,0-6.6-0.9-9.2-2.6c-2.6-1.7-4.6-3.5-6.1-5.5c-1.6,2.1-4,4.3-7,6.7c-3.1,2.4-6,3.5-8.7,3.5
			c-1.9,0-3.2-0.7-3.8-2.1c-0.6-1.4-0.7-3-0.5-5c0.2-2,0.7-3.9,1.3-6C1026.1,214.2,1026.7,212.5,1027.2,211.2z"/>
		<path class="st0" d="M1102.8,206.6c1,0,1.5,0.6,1.5,1.7c0,1.1-0.5,1.7-1.5,1.7c-1.6,0-3.3,0.2-5,0.5s-3.3,0.8-4.7,1.3
			c-1.5,0.6-2.6,1.3-3.5,2.1s-1.3,1.6-1.3,2.4c0,1.3,0.6,2.2,1.7,2.8s2.3,1,3.6,1.3c0.8,0.2,1.2,0.7,1.1,1.6
			c-0.1,0.9-0.5,1.3-1.3,1.3c-2.8,0.3-4.1,1.1-4.1,2.2c0,1.8,4,2.7,12.1,2.7c3.2,0,7.2-0.4,11.8-1.1c4.6-0.7,9.3-1.7,14.1-2.9
			c4.8-1.2,9.3-2.6,13.6-4.3c4.3-1.6,7.8-3.4,10.6-5.3c0.8-0.5,1.5-0.3,2.2,0.5c0.6,0.8,0.6,1.6-0.2,2.4c-2.8,1.9-6.4,3.8-10.9,5.5
			s-9.3,3.2-14.2,4.5c-4.9,1.3-9.8,2.3-14.6,3c-4.8,0.7-8.9,1.1-12.3,1.1c-4.7,0-8.5-0.4-11.3-1.3c-2.8-0.9-4.3-2.5-4.3-4.7
			c0-0.8,0.4-1.5,1.2-2.2c0.8-0.6,1.6-1.1,2.4-1.5c-2.9-0.8-4.4-2.7-4.4-5.6c0-1.3,0.6-2.6,1.7-3.8s2.6-2.3,4.3-3.2
			c1.7-0.9,3.6-1.6,5.7-2.1C1098.8,206.8,1100.8,206.6,1102.8,206.6z"/>
		<path class="st0" d="M1188,179.6c0,2.6-0.7,5.6-2.2,9s-3.7,6.8-6.7,10.3s-6.7,6.9-11.2,10.2s-9.7,6.2-15.7,8.6
			c1,2.6,2.8,4.7,5.3,6.3c2.6,1.6,6,2.4,10.2,2.4s9.2-0.9,14.9-2.8c5.7-1.9,12.4-4.9,20-9.1c0.8-0.3,1.5,0,1.9,0.8
			c0.5,0.9,0.3,1.6-0.5,2.1c-7.8,4.5-14.7,7.7-20.8,9.6c-6.1,1.9-11.3,2.8-15.7,2.8c-7.1,0-12.3-1.8-15.4-5.5
			c-3.2-3.6-4.7-8.1-4.7-13.2c0-5.5,1-10.7,3-15.7c2-4.9,4.6-9.3,7.8-13c3.2-3.7,6.6-6.7,10.2-8.9s7.2-3.3,10.6-3.3
			c2.9,0,5.1,0.9,6.6,2.6C1187.3,174.6,1188,176.9,1188,179.6z M1151.1,211.2c0,1.5,0.1,2.5,0.2,3.2c5.7-2.3,10.6-4.9,14.7-8
			s7.6-6.2,10.3-9.4c2.8-3.2,4.8-6.3,6.2-9.4c1.4-3.1,2.1-5.7,2.1-8c0-3.9-1.8-5.8-5.3-5.8c-2.9,0-6,1-9.4,3c-3.3,2-6.4,4.7-9.2,8.1
			c-2.8,3.4-5.1,7.4-6.9,11.9C1152,201.4,1151.1,206.2,1151.1,211.2z"/>
		<path class="st0" d="M1220.3,215.8c-0.3,0.8-1,1.2-1.9,1.1c-1-0.1-1.5-0.6-1.5-1.6c0.2-0.6,0.1-1.4-0.2-2.2
			c-0.3-0.8-1.1-1.2-2.2-1.2c-1.3,0-2.7,0.4-4.1,1.1c-1.5,0.7-2.8,1.7-4.1,2.8c-1.3,1.1-2.4,2.3-3.3,3.5s-1.3,2.4-1.3,3.5
			c0,0.6,0.3,0.9,1,0.9c0.6-0.1,1.5-0.4,2.6-1s2.2-1.3,3.5-2.2s2.6-1.9,3.9-3c1-0.8,1.8-1.1,2.4-1c0.6,0.2,1.3,0.6,1.9,1.2
			c2.3,2.3,4.8,3.8,7.5,4.6c2.8,0.8,5.3,1.2,7.5,1.2c4,0,8.5-0.9,13.2-2.7c4.8-1.8,9.2-3.9,13.2-6.3c1.3-0.5,2.1-0.3,2.6,0.6
			c0.4,0.9,0.2,1.7-0.6,2.3c-4.2,2.6-8.9,4.8-14.1,6.7s-10,2.8-14.3,2.8c-3.2,0-6.4-0.5-9.4-1.6s-5.8-2.7-8.4-5
			c-4.1,3.9-7.7,6.1-11.1,6.6c-3.3,0.5-5-0.9-5-4.1c0-1.5,0.5-3,1.6-4.7s2.4-3.2,4-4.6c1.6-1.4,3.4-2.6,5.3-3.5
			c1.9-1,3.7-1.5,5.3-1.5c2.6,0,4.3,0.9,5,2.7C1220.2,213,1220.5,214.5,1220.3,215.8z"/>
	</g>
	<g>
		<path class="st1" d="M231.4,299.6c-0.4,0.6-0.8,1.2-1.4,1.7c-2,2.1-4.8,3.3-7.7,3.4h-0.2c-0.1,0-0.1,0-0.2,0
			c-2.9-0.1-5.6-1.3-7.7-3.4c-2.1-2.2-3.3-5.2-3.3-8.3s1.2-6.1,3.3-8.3c2.1-2.1,4.8-3.3,7.7-3.4h0.4c2.9,0.1,5.6,1.3,7.7,3.4
			c0.5,0.5,1,1.1,1.4,1.7L230,287c-1.8-2.5-4.6-4.2-7.9-4.3c-5.4,0.1-9.8,4.6-9.8,10.2s4.4,10.1,9.8,10.3c3.3-0.1,6.1-1.8,7.9-4.3
			L231.4,299.6z"/>
		<path class="st1" d="M258.1,304.7c-0.1,0-0.2,0-0.2,0h-0.2c-2.9-0.1-5.6-1.3-7.7-3.5c-2.2-2.2-3.3-5.2-3.3-8.4
			c0-3.2,1.2-6.1,3.3-8.4c2-2.1,4.7-3.4,7.7-3.5h0.4c2.9,0.1,5.6,1.3,7.7,3.5s3.3,5.2,3.3,8.4c0,3.2-1.2,6.1-3.3,8.4
			C263.7,303.4,261,304.6,258.1,304.7z M257.9,282.5c-5.4,0.1-9.7,4.7-9.7,10.4c0,5.7,4.3,10.3,9.7,10.4c5.4-0.1,9.8-4.7,9.8-10.4
			C267.6,287.3,263.3,282.6,257.9,282.5z"/>
		<path class="st1" d="M305.4,281.6v22.8H304v-20l-8.4,10.6l-8.8-10.6v20.1h-1.5v-22.8h1.2l9,11l8.7-11h1.2V281.6z"/>
		<path class="st1" d="M322.6,281.5h1.5v22.8h-1.5V281.5z"/>
		<path class="st1" d="M356.3,301c-2.2,2.1-5,3.3-8.1,3.3h-6.9v-22.8h6.9c3,0,5.9,1.2,8.1,3.3c2.1,2.1,3.3,5,3.3,8.1
			C359.6,296,358.4,298.9,356.3,301z M358.1,292.9c0-5.5-4.5-9.9-9.9-9.9l0,0h-5.3v19.9h5.3C353.7,302.9,358.1,298.4,358.1,292.9z"
			/>
		<path class="st1" d="M383.4,281.5l9,22.8h-1.6l-1.8-4.5c-1.2,0.5-3.2,1-6.1,1c-3,0-5-0.6-6.1-1l-1.7,4.5h-1.6l8.8-22.8H383.4z
			 M388.5,298.6l-5.6-14.2l-5.5,14.2c0.2,0.1,0.4,0.2,0.7,0.2c1,0.3,2.6,0.7,4.9,0.7C385.7,299.4,387.5,299,388.5,298.6z"/>
		<path class="st1" d="M450.9,299.6c-0.4,0.6-0.8,1.2-1.4,1.7c-2,2.1-4.8,3.3-7.7,3.4h-0.2c-0.1,0-0.1,0-0.2,0
			c-2.9-0.1-5.6-1.3-7.7-3.4c-2.1-2.2-3.3-5.2-3.3-8.3s1.2-6.1,3.3-8.3c2.1-2.1,4.8-3.3,7.7-3.4h0.4c2.9,0.1,5.6,1.3,7.7,3.4
			c0.5,0.5,1,1.1,1.4,1.7l-1.4,0.6c-1.8-2.5-4.6-4.2-7.9-4.3c-5.4,0.1-9.8,4.6-9.8,10.2s4.4,10.1,9.8,10.3c3.3-0.1,6.1-1.8,7.9-4.3
			L450.9,299.6z"/>
		<path class="st1" d="M475.4,281.5l9,22.8h-1.6l-1.8-4.5c-1.2,0.5-3.2,1-6.1,1c-3,0-5-0.6-6.1-1l-1.7,4.5h-1.6l8.8-22.8H475.4z
			 M480.5,298.6l-5.6-14.2l-5.5,14.2c0.2,0.1,0.4,0.2,0.7,0.2c1,0.3,2.6,0.7,4.9,0.7C477.7,299.4,479.5,299,480.5,298.6z"/>
		<path class="st1" d="M518.9,299.6c-0.4,0.6-0.8,1.2-1.4,1.7c-2,2.1-4.8,3.3-7.7,3.4h-0.2c-0.1,0-0.1,0-0.2,0
			c-2.9-0.1-5.6-1.3-7.7-3.4c-2.1-2.2-3.3-5.2-3.3-8.3s1.2-6.1,3.3-8.3c2.1-2.1,4.8-3.3,7.7-3.4h0.4c2.9,0.1,5.6,1.3,7.7,3.4
			c0.5,0.5,1,1.1,1.4,1.7l-1.4,0.6c-1.8-2.5-4.6-4.2-7.9-4.3c-5.4,0.1-9.8,4.6-9.8,10.2s4.4,10.1,9.8,10.3c3.2-0.1,6.1-1.8,7.9-4.3
			L518.9,299.6z"/>
		<path class="st1" d="M549.1,302.9v1.5h-13.3v-22.8h12.9v1.5h-11.4v10.8h8.8v1.5h-8.8v7.5H549.1z"/>
		<path class="st1" d="M574.7,296.2l4.9,8.2h-1.7l-4.7-8c-2.2,0.2-4.4-0.3-5.6-0.6v8.6H566v-22.2l0.5-0.2c0.3-0.1,7.3-2.2,11.3,0.7
			c1.8,1.3,2.6,3.3,2.6,6.1s-0.9,4.8-2.6,6.1C576.8,295.5,575.8,295.9,574.7,296.2z M576.9,293.7c1.3-1,2-2.6,2-4.9s-0.7-3.9-2-4.9
			c-2.8-2.1-7.8-1-9.4-0.6v11C569.1,294.7,574.1,295.7,576.9,293.7z"/>
		<path class="st1" d="M605.5,281.5l9,22.8h-1.6l-1.8-4.5c-1.2,0.5-3.2,1-6.1,1c-3,0-5-0.6-6.1-1l-1.7,4.5h-1.6l8.8-22.8H605.5z
			 M610.6,298.6l-5.6-14.2l-5.5,14.2c0.2,0.1,0.4,0.2,0.7,0.2c1,0.3,2.6,0.7,4.9,0.7C607.8,299.4,609.7,299,610.6,298.6z"/>
		<path class="st1" d="M673.1,299.6c-0.4,0.6-0.8,1.2-1.4,1.7c-2,2.1-4.8,3.3-7.7,3.4h-0.2c-0.1,0-0.1,0-0.2,0
			c-2.9-0.1-5.6-1.3-7.7-3.4c-2.1-2.2-3.3-5.2-3.3-8.3s1.2-6.1,3.3-8.3c2.1-2.1,4.8-3.3,7.7-3.4h0.4c2.9,0.1,5.6,1.3,7.7,3.4
			c0.5,0.5,1,1.1,1.4,1.7l-1.4,0.6c-1.8-2.5-4.6-4.2-7.9-4.3c-5.4,0.1-9.8,4.6-9.8,10.2s4.4,10.1,9.8,10.3c3.3-0.1,6.1-1.8,7.9-4.3
			L673.1,299.6z"/>
		<path class="st1" d="M699.8,304.7c-0.1,0-0.2,0-0.2,0h-0.2c-2.9-0.1-5.6-1.3-7.7-3.5c-2.2-2.2-3.3-5.2-3.3-8.4
			c0-3.2,1.2-6.1,3.3-8.4c2-2.1,4.7-3.4,7.7-3.5h0.4c2.9,0.1,5.6,1.3,7.7,3.5c2.1,2.2,3.3,5.2,3.3,8.4c0,3.2-1.2,6.1-3.3,8.4
			C705.4,303.4,702.7,304.6,699.8,304.7z M699.5,282.5c-5.4,0.1-9.7,4.7-9.7,10.4c0,5.7,4.3,10.3,9.7,10.4c5.4-0.1,9.8-4.7,9.8-10.4
			C709.3,287.3,704.9,282.6,699.5,282.5z"/>
		<path class="st1" d="M747.1,281.6v22.8h-1.5v-20l-8.4,10.6l-8.8-10.6v20.1H727v-22.8h1.2l9,11l8.7-11h1.2V281.6z"/>
		<path class="st1" d="M774.8,304.7c-0.1,0-0.2,0-0.2,0h-0.2c-2.9-0.1-5.6-1.3-7.7-3.5c-2.2-2.2-3.3-5.2-3.3-8.4
			c0-3.2,1.2-6.1,3.3-8.4c2-2.1,4.7-3.4,7.7-3.5h0.4c2.9,0.1,5.6,1.3,7.7,3.5c2.1,2.2,3.3,5.2,3.3,8.4c0,3.2-1.2,6.1-3.3,8.4
			C780.4,303.4,777.7,304.6,774.8,304.7z M774.5,282.5c-5.4,0.1-9.7,4.7-9.7,10.4c0,5.7,4.3,10.3,9.7,10.4c5.4-0.1,9.8-4.7,9.8-10.4
			C784.3,287.3,779.9,282.6,774.5,282.5z"/>
		<path class="st1" d="M827.9,302.9h10.7v1.5h-12.2v-22.8h1.5V302.9z"/>
		<path class="st1" d="M864.3,281.5l9,22.8h-1.6l-1.8-4.5c-1.2,0.5-3.2,1-6.1,1c-3,0-5-0.6-6.1-1l-1.7,4.5h-1.6l8.8-22.8H864.3z
			 M869.4,298.6l-5.6-14.2l-5.5,14.2c0.2,0.1,0.4,0.2,0.7,0.2c1,0.3,2.6,0.7,4.9,0.7C866.6,299.4,868.4,299,869.4,298.6z"/>
		<path class="st1" d="M926.2,301c-2.2,2.1-5,3.3-8.1,3.3h-6.9v-22.8h6.9c3,0,5.9,1.2,8.1,3.3c2.1,2.1,3.3,5,3.3,8.1
			S928.4,298.9,926.2,301z M928.1,292.9c0-5.5-4.5-9.9-9.9-9.9l0,0h-5.3v19.9h5.3C923.6,302.9,928.1,298.4,928.1,292.9z"/>
		<path class="st1" d="M959.8,302.9v1.5h-13.3v-22.8h12.9v1.5H948v10.8h8.8v1.5H948v7.5H959.8z"/>
		<path class="st1" d="M1007.6,281.5l9,22.8h-1.6l-1.8-4.5c-1.2,0.5-3.2,1-6.1,1c-3,0-5-0.6-6.1-1l-1.7,4.5h-1.6l8.8-22.8H1007.6z
			 M1012.7,298.6l-5.6-14.2l-5.5,14.2c0.2,0.1,0.4,0.2,0.7,0.2c1,0.3,2.6,0.7,4.9,0.7C1009.9,299.4,1011.8,299,1012.7,298.6z"/>
		<path class="st1" d="M1049.2,281.6v22.8h-1.1l-13.8-19.7v19.7h-1.5v-22.8h1.1l13.7,19.6v-19.6H1049.2z"/>
		<path class="st1" d="M1079.9,283h-6.5v21.4h-1.5V283h-6.5v-1.5h14.5V283z"/>
		<path class="st1" d="M1109.1,302.9v1.5h-13.3v-22.8h12.9v1.5h-11.4v10.8h8.8v1.5h-8.8v7.5H1109.1z"/>
		<path class="st1" d="M1136.3,302.9l-0.2,0.2c-1.2,1-2.7,1.6-4.4,1.6h-0.2c-1.7,0-3.3-0.6-4.5-1.6c-1.1-0.9-1.8-2.2-2-3.6l1.5-0.2
			c0.1,1,0.7,2,1.5,2.7c2,1.7,5.2,1.6,7.1-0.1c1.1-1.1,1.7-2.6,1.6-4.1s-0.7-2.7-1.9-3.6c-1.2-0.9-2.4-1.2-3.6-1.5
			c-1.4-0.3-2.9-0.6-4.2-2c-1.2-1.3-1.9-2.8-1.9-4.3c0.1-1.4,0.7-2.6,1.8-3.7c1.4-1.2,2.9-1.6,4.5-1.6c1.7,0,3.3,0.6,4.5,1.7
			c0.8,0.7,1.3,1.6,1.6,2.5l-1.5,0.2c-0.2-0.6-0.6-1.1-1.1-1.6c-1.9-1.7-5-1.7-6.9-0.1c-0.8,0.8-1.3,1.7-1.3,2.7
			c-0.1,1.1,0.5,2.2,1.4,3.2c1,1,2.1,1.3,3.4,1.6c1.3,0.3,2.7,0.6,4.2,1.7s2.4,2.8,2.5,4.6C1138.3,299.6,1137.6,301.5,1136.3,302.9z
			"/>
	</g>
	<line class="st2" x1="346.1" y1="255.2" x2="1016.1" y2="255.2"/>
</g>
</svg>
